<?xml version="1.0" encoding="UTF-8" standalone="no"?>
<!-- Created with Inkscape (http://www.inkscape.org/) -->

<svg
   width="1024"
   height="1024"
   viewBox="0 0 270.93332 270.93334"
   version="1.1"
   id="svg7242"
   inkscape:version="1.1.2 (b8e25be833, 2022-02-05)"
   sodipodi:docname="First track.svg"
   inkscape:export-filename="C:\Users\Lukasz\Desktop\First track.png"
   inkscape:export-xdpi="96"
   inkscape:export-ydpi="96"
   xmlns:inkscape="http://www.inkscape.org/namespaces/inkscape"
   xmlns:sodipodi="http://sodipodi.sourceforge.net/DTD/sodipodi-0.dtd"
   xmlns="http://www.w3.org/2000/svg"
   xmlns:svg="http://www.w3.org/2000/svg">
  <sodipodi:namedview
     id="namedview7244"
     pagecolor="#ffffff"
     bordercolor="#666666"
     borderopacity="1.0"
     inkscape:pageshadow="2"
     inkscape:pageopacity="0.0"
     inkscape:pagecheckerboard="0"
     inkscape:document-units="mm"
     showgrid="false"
     inkscape:zoom="1.4142136"
     inkscape:cx="362.03866"
     inkscape:cy="573.46358"
     inkscape:window-width="1920"
     inkscape:window-height="1017"
     inkscape:window-x="-8"
     inkscape:window-y="-8"
     inkscape:window-maximized="1"
     inkscape:current-layer="layer1"
     units="px" />
  <defs
     id="defs7239">
    <inkscape:path-effect
       effect="bspline"
       id="path-effect4821"
       is_visible="true"
       lpeversion="1"
       weight="33.333333"
       steps="2"
       helper_size="0"
       apply_no_weight="true"
       apply_with_weight="true"
       only_selected="false" />
    <inkscape:path-effect
       effect="bspline"
       id="path-effect1641"
       is_visible="true"
       lpeversion="1"
       weight="33.333333"
       steps="2"
       helper_size="0"
       apply_no_weight="true"
       apply_with_weight="true"
       only_selected="false" />
    <inkscape:path-effect
       effect="spiro"
       id="path-effect1604"
       is_visible="true"
       lpeversion="1" />
  </defs>
  <g
     inkscape:label="Layer 1"
     inkscape:groupmode="layer"
     id="layer1">
    <g
       id="g5816"
       transform="matrix(0.26458333,0,0,0.26458333,-469.24836,-126.38199)">
      <rect
         x="1903.766"
         y="984.17603"
         fill="#4d4d4d"
         width="200"
         height="200"
         id="rect5782" />
      <rect
         x="1878.932"
         y="1159.176"
         fill="#c1272d"
         width="25"
         height="25"
         id="rect5784" />
      <rect
         x="1878.932"
         y="984.17603"
         fill="#e6e6e6"
         width="25"
         height="25"
         id="rect5786" />
      <rect
         x="1878.932"
         y="1009.176"
         fill="#c1272d"
         width="25"
         height="25"
         id="rect5788" />
      <rect
         x="1878.932"
         y="1034.176"
         fill="#e6e6e6"
         width="25"
         height="25"
         id="rect5790" />
      <rect
         x="1878.932"
         y="1059.176"
         fill="#c1272d"
         width="25"
         height="25"
         id="rect5792" />
      <rect
         x="1878.932"
         y="1084.176"
         fill="#e6e6e6"
         width="25"
         height="25"
         id="rect5794" />
      <rect
         x="1878.932"
         y="1109.176"
         fill="#c1272d"
         width="25"
         height="25"
         id="rect5796" />
      <rect
         x="1878.932"
         y="1134.176"
         fill="#e6e6e6"
         width="25"
         height="25"
         id="rect5798" />
      <rect
         x="2103.7661"
         y="984.17603"
         fill="#c1272d"
         width="25"
         height="25"
         id="rect5800" />
      <rect
         x="2103.7661"
         y="1159.176"
         fill="#e6e6e6"
         width="25"
         height="25"
         id="rect5802" />
      <rect
         x="2103.7661"
         y="1134.176"
         fill="#c1272d"
         width="25"
         height="25"
         id="rect5804" />
      <rect
         x="2103.7661"
         y="1109.176"
         fill="#e6e6e6"
         width="25"
         height="25"
         id="rect5806" />
      <rect
         x="2103.7661"
         y="1084.176"
         fill="#c1272d"
         width="25"
         height="25"
         id="rect5808" />
      <rect
         x="2103.7661"
         y="1059.176"
         fill="#e6e6e6"
         width="25"
         height="25"
         id="rect5810" />
      <rect
         x="2103.7671"
         y="1034.176"
         fill="#c1272d"
         width="24.997999"
         height="25"
         id="rect5812" />
      <rect
         x="2103.7671"
         y="1009.176"
         fill="#e6e6e6"
         width="25"
         height="25"
         id="rect5814" />
    </g>
    <g
       id="g5960"
       transform="matrix(0.26458333,0,0,0.26458333,-402.72891,-366.41674)">
      <path
         fill="#4d4d4d"
         d="m 1652.521,1891.391 c -0.385,-62.976 25.9,-126.415 70.684,-170.642 44.227,-44.783 107.666,-71.066 170.642,-70.682 v 200.001 c -21.977,-0.697 -42.022,19.346 -41.325,41.324 z"
         id="path5926" />
      <path
         fill="#c1272d"
         d="m 1885.645,1850.713 c 2.631,-0.521 5.348,-0.797 8.201,-0.811 v 25 c -1.252,0.014 -2.332,0.133 -3.35,0.336 z"
         id="path5928" />
      <path
         fill="#e6e6e6"
         d="m 1852.354,1891.393 c 0.014,-2.854 0.289,-5.57 0.811,-8.201 l 24.526,4.852 c -0.203,1.018 -0.322,2.098 -0.336,3.35 h -25.001 z"
         id="path5930" />
      <path
         fill="#c1272d"
         d="m 1853.165,1883.191 c 0.523,-2.629 1.295,-5.176 2.318,-7.646 l 23.093,9.576 c -0.391,0.949 -0.68,1.906 -0.885,2.922 z"
         id="path5932" />
      <path
         fill="#e6e6e6"
         d="m 1855.483,1875.545 c 1.021,-2.469 2.297,-4.859 3.811,-7.127 l 20.776,13.906 c -0.605,0.912 -1.102,1.85 -1.494,2.797 z"
         id="path5934" />
      <path
         fill="#c1272d"
         d="m 1859.294,1868.418 c 1.515,-2.268 3.269,-4.41 5.214,-6.363 l 17.678,17.678 c -0.797,0.803 -1.512,1.682 -2.115,2.592 z"
         id="path5936" />
      <path
         fill="#e6e6e6"
         d="m 1864.508,1862.055 c 1.953,-1.947 4.096,-3.699 6.363,-5.213 l 13.908,20.773 c -0.91,0.605 -1.791,1.32 -2.594,2.117 z"
         id="path5938" />
      <path
         fill="#c1272d"
         d="m 1870.871,1856.842 c 2.268,-1.516 4.658,-2.789 7.129,-3.812 l 9.574,23.094 c -0.947,0.391 -1.885,0.887 -2.795,1.492 z"
         id="path5940" />
      <path
         fill="#e6e6e6"
         d="m 1878,1853.029 c 2.469,-1.021 5.016,-1.793 7.645,-2.316 l 4.852,24.525 c -1.016,0.203 -1.973,0.494 -2.922,0.885 z"
         id="path5942" />
      <path
         fill="#c1272d"
         d="m 1657.132,1844.412 c -3.078,15.527 -4.602,31.32 -4.611,46.98 h -25 c 0.01,-17.26 1.689,-34.691 5.086,-51.832 z"
         id="path5944" />
      <path
         fill="#e6e6e6"
         d="m 1893.846,1650.067 c -15.658,0.01 -31.453,1.533 -46.981,4.609 l -4.852,-24.523 c 17.141,-3.396 34.573,-5.078 51.835,-5.086 z"
         id="path5946" />
      <path
         fill="#c1272d"
         d="m 1846.864,1654.677 c -15.527,3.072 -30.783,7.693 -45.41,13.76 l -9.576,-23.094 c 16.148,-6.697 32.994,-11.799 50.135,-15.189 z"
         id="path5948" />
      <path
         fill="#e6e6e6"
         d="m 1801.454,1668.437 c -14.633,6.064 -28.639,13.568 -41.754,22.348 l -13.908,-20.773 c 14.473,-9.689 29.932,-17.973 46.086,-24.668 z"
         id="path5950" />
      <path
         fill="#c1272d"
         d="m 1759.7,1690.784 c -13.119,8.777 -25.354,18.826 -36.498,29.965 l -17.676,-17.678 c 12.293,-12.287 25.789,-23.375 40.266,-33.061 z"
         id="path5952" />
      <path
         fill="#e6e6e6"
         d="m 1723.202,1720.749 c -11.137,11.145 -21.186,23.377 -29.965,36.496 l -20.773,-13.908 c 9.686,-14.477 20.773,-27.971 33.061,-40.266 z"
         id="path5954" />
      <path
         fill="#c1272d"
         d="m 1693.237,1757.245 c -8.777,13.117 -16.283,27.123 -22.348,41.754 l -23.094,-9.576 c 6.695,-16.152 14.98,-31.611 24.668,-46.086 z"
         id="path5956" />
      <path
         fill="#e6e6e6"
         d="m 1670.89,1798.999 c -6.066,14.629 -10.688,29.883 -13.758,45.413 l -24.525,-4.852 c 3.391,-17.144 8.492,-33.987 15.189,-50.138 z"
         id="path5958" />
    </g>
    <g
       id="g5996"
       transform="matrix(0.26458333,0,0,0.26458333,-405.37501,-366.41674)">
      <rect
         x="1903.85"
         y="1650.067"
         fill="#4d4d4d"
         width="200"
         height="200.00101"
         id="rect5962" />
      <rect
         x="2078.8479"
         y="1849.902"
         fill="#c1272d"
         width="25"
         height="25"
         id="rect5964" />
      <rect
         x="1903.848"
         y="1849.902"
         fill="#e6e6e6"
         width="25"
         height="25"
         id="rect5966" />
      <rect
         x="1928.848"
         y="1849.902"
         fill="#c1272d"
         width="25"
         height="25"
         id="rect5968" />
      <rect
         x="1953.848"
         y="1849.902"
         fill="#e6e6e6"
         width="25.002001"
         height="25"
         id="rect5970" />
      <rect
         x="1978.85"
         y="1849.902"
         fill="#c1272d"
         width="25"
         height="25"
         id="rect5972" />
      <rect
         x="2003.849"
         y="1849.902"
         fill="#e6e6e6"
         width="25"
         height="25"
         id="rect5974" />
      <rect
         x="2028.85"
         y="1849.902"
         fill="#c1272d"
         width="24.997999"
         height="25"
         id="rect5976" />
      <rect
         x="2053.8479"
         y="1849.902"
         fill="#e6e6e6"
         width="25"
         height="25"
         id="rect5978" />
      <rect
         x="1903.848"
         y="1625.067"
         fill="#c1272d"
         width="25.002001"
         height="25"
         id="rect5980" />
      <rect
         x="2078.8501"
         y="1625.067"
         fill="#e6e6e6"
         width="25"
         height="25"
         id="rect5982" />
      <rect
         x="2053.8479"
         y="1625.067"
         fill="#c1272d"
         width="25.002001"
         height="25"
         id="rect5984" />
      <rect
         x="2028.848"
         y="1625.067"
         fill="#e6e6e6"
         width="25"
         height="25"
         id="rect5986" />
      <rect
         x="2003.848"
         y="1625.067"
         fill="#c1272d"
         width="25"
         height="25"
         id="rect5988" />
      <rect
         x="1978.848"
         y="1625.067"
         fill="#e6e6e6"
         width="25"
         height="25"
         id="rect5990" />
      <rect
         x="1953.848"
         y="1625.068"
         fill="#c1272d"
         width="25"
         height="24.997999"
         id="rect5992" />
      <rect
         x="1928.85"
         y="1625.066"
         fill="#e6e6e6"
         width="24.997999"
         height="25"
         id="rect5994" />
    </g>
    <g
       id="g6032"
       transform="matrix(0.26458333,0,0,0.26458333,-408.02166,-366.46093)">
      <path
         fill="#4d4d4d"
         d="m 2113.85,1650.065 c 62.977,-0.385 126.416,25.9 170.643,70.684 44.781,44.229 71.066,107.666 70.682,170.644 h -200 c 0.695,-21.977 -19.348,-42.021 -41.324,-41.324 v -200.004 z"
         id="path5998" />
      <path
         fill="#c1272d"
         d="m 2154.527,1883.191 c 0.523,2.631 0.799,5.348 0.812,8.201 h -25 c -0.014,-1.252 -0.135,-2.332 -0.336,-3.35 z"
         id="path6000" />
      <path
         fill="#e6e6e6"
         d="m 2113.85,1849.902 c 2.854,0.014 5.568,0.289 8.199,0.811 l -4.852,24.525 c -1.016,-0.203 -2.096,-0.322 -3.348,-0.336 v -25 z"
         id="path6002" />
      <path
         fill="#c1272d"
         d="m 2122.049,1850.713 c 2.631,0.523 5.176,1.295 7.646,2.316 l -9.574,23.094 c -0.951,-0.391 -1.908,-0.68 -2.924,-0.885 z"
         id="path6004" />
      <path
         fill="#e6e6e6"
         d="m 2129.695,1853.029 c 2.469,1.023 4.859,2.297 7.129,3.812 l -13.908,20.775 c -0.91,-0.605 -1.85,-1.102 -2.795,-1.494 z"
         id="path6006" />
      <path
         fill="#c1272d"
         d="m 2136.824,1856.842 c 2.268,1.514 4.41,3.266 6.363,5.213 l -17.678,17.678 c -0.803,-0.797 -1.684,-1.512 -2.594,-2.115 z"
         id="path6008" />
      <path
         fill="#e6e6e6"
         d="m 2143.188,1862.055 c 1.945,1.953 3.699,4.096 5.213,6.363 l -20.775,13.908 c -0.604,-0.91 -1.318,-1.791 -2.115,-2.594 z"
         id="path6010" />
      <path
         fill="#c1272d"
         d="m 2148.4,1868.418 c 1.514,2.268 2.789,4.658 3.811,7.129 l -23.094,9.574 c -0.391,-0.947 -0.887,-1.885 -1.492,-2.795 z"
         id="path6012" />
      <path
         fill="#e6e6e6"
         d="m 2152.211,1875.547 c 1.023,2.469 1.795,5.016 2.316,7.645 l -24.523,4.852 c -0.205,-1.016 -0.494,-1.973 -0.887,-2.922 z"
         id="path6014" />
      <path
         fill="#c1272d"
         d="m 2160.83,1654.677 c -15.527,-3.076 -31.322,-4.6 -46.982,-4.611 v -24.998 c 17.262,0.01 34.693,1.688 51.832,5.084 z"
         id="path6016" />
      <path
         fill="#e6e6e6"
         d="m 2355.174,1891.393 c -0.01,-15.658 -1.533,-31.453 -4.611,-46.98 l 24.525,-4.852 c 3.396,17.141 5.076,34.572 5.086,51.834 z"
         id="path6018" />
      <path
         fill="#c1272d"
         d="m 2350.562,1844.412 c -3.07,-15.53 -7.691,-30.784 -13.758,-45.413 l 23.094,-9.576 c 6.697,16.15 11.799,32.994 15.189,50.138 z"
         id="path6020" />
      <path
         fill="#e6e6e6"
         d="m 2336.805,1798.999 c -6.064,-14.631 -13.57,-28.637 -22.35,-41.754 l 20.775,-13.908 c 9.688,14.475 17.973,29.934 24.668,46.086 z"
         id="path6022" />
      <path
         fill="#c1272d"
         d="m 2314.455,1757.245 c -8.777,-13.119 -18.826,-25.352 -29.965,-36.496 l 17.68,-17.678 c 12.287,12.293 23.373,25.789 33.061,40.266 z"
         id="path6024" />
      <path
         fill="#e6e6e6"
         d="m 2284.49,1720.749 c -11.143,-11.139 -23.377,-21.188 -36.496,-29.965 l 13.908,-20.775 c 14.477,9.688 27.973,20.775 40.266,33.062 z"
         id="path6026" />
      <path
         fill="#c1272d"
         d="m 2247.994,1690.784 c -13.115,-8.779 -27.123,-16.285 -41.754,-22.348 l 9.576,-23.094 c 16.152,6.695 31.611,14.979 46.086,24.666 z"
         id="path6028" />
      <path
         fill="#e6e6e6"
         d="m 2206.24,1668.437 c -14.629,-6.068 -29.883,-10.688 -45.41,-13.76 l 4.85,-24.525 c 17.143,3.391 33.986,8.494 50.137,15.191 z"
         id="path6030" />
    </g>
    <g
       id="g6068"
       transform="matrix(0.26458333,0,0,0.26458333,-408.01768,-369.20969)">
      <rect
         x="2155.158"
         y="1901.783"
         fill="#4d4d4d"
         width="200"
         height="200"
         id="rect6034" />
      <rect
         x="2130.324"
         y="2076.781"
         fill="#c1272d"
         width="25"
         height="25"
         id="rect6036" />
      <rect
         x="2130.324"
         y="1901.781"
         fill="#e6e6e6"
         width="25"
         height="25"
         id="rect6038" />
      <rect
         x="2130.324"
         y="1926.781"
         fill="#c1272d"
         width="25"
         height="25"
         id="rect6040" />
      <rect
         x="2130.324"
         y="1951.781"
         fill="#e6e6e6"
         width="25"
         height="25.002001"
         id="rect6042" />
      <rect
         x="2130.324"
         y="1976.783"
         fill="#c1272d"
         width="25"
         height="25"
         id="rect6044" />
      <rect
         x="2130.324"
         y="2001.782"
         fill="#e6e6e6"
         width="25"
         height="25"
         id="rect6046" />
      <rect
         x="2130.324"
         y="2026.783"
         fill="#c1272d"
         width="25"
         height="24.997999"
         id="rect6048" />
      <rect
         x="2130.324"
         y="2051.781"
         fill="#e6e6e6"
         width="25"
         height="25"
         id="rect6050" />
      <rect
         x="2355.158"
         y="1901.781"
         fill="#c1272d"
         width="25"
         height="25.002001"
         id="rect6052" />
      <rect
         x="2355.158"
         y="2076.783"
         fill="#e6e6e6"
         width="25"
         height="25"
         id="rect6054" />
      <rect
         x="2355.158"
         y="2051.781"
         fill="#c1272d"
         width="25"
         height="25.002001"
         id="rect6056" />
      <rect
         x="2355.158"
         y="2026.781"
         fill="#e6e6e6"
         width="25"
         height="25"
         id="rect6058" />
      <rect
         x="2355.158"
         y="2001.781"
         fill="#c1272d"
         width="25"
         height="25"
         id="rect6060" />
      <rect
         x="2355.158"
         y="1976.781"
         fill="#e6e6e6"
         width="25"
         height="25"
         id="rect6062" />
      <rect
         x="2355.158"
         y="1951.781"
         fill="#c1272d"
         width="25"
         height="25"
         id="rect6064" />
      <rect
         x="2355.158"
         y="1926.783"
         fill="#e6e6e6"
         width="25"
         height="24.997999"
         id="rect6066" />
    </g>
    <g
       id="g6104"
       transform="matrix(0.26458333,0,0,0.26458333,-408.10501,-371.855)">
      <path
         fill="#4d4d4d"
         d="m 2355.158,2111.783 c 0.385,62.977 -25.9,126.416 -70.684,170.643 -44.227,44.781 -107.666,71.066 -170.641,70.682 v -200 c 21.977,0.695 42.021,-19.348 41.324,-41.324 h 200.001 z"
         id="path6070" />
      <path
         fill="#c1272d"
         d="m 2122.035,2152.461 c -2.631,0.523 -5.348,0.799 -8.201,0.812 v -25 c 1.252,-0.014 2.332,-0.135 3.35,-0.336 z"
         id="path6072" />
      <path
         fill="#e6e6e6"
         d="m 2155.324,2111.783 c -0.014,2.854 -0.289,5.568 -0.811,8.199 l -24.525,-4.852 c 0.203,-1.016 0.322,-2.096 0.336,-3.348 h 25 z"
         id="path6074" />
      <path
         fill="#c1272d"
         d="m 2154.514,2119.982 c -0.523,2.631 -1.295,5.176 -2.318,7.646 l -23.092,-9.574 c 0.391,-0.951 0.68,-1.908 0.885,-2.924 z"
         id="path6076" />
      <path
         fill="#e6e6e6"
         d="m 2152.195,2127.629 c -1.021,2.469 -2.297,4.859 -3.811,7.129 l -20.775,-13.908 c 0.605,-0.91 1.102,-1.85 1.494,-2.795 z"
         id="path6078" />
      <path
         fill="#c1272d"
         d="m 2148.385,2134.758 c -1.514,2.268 -3.268,4.41 -5.213,6.363 l -17.678,-17.678 c 0.797,-0.803 1.512,-1.684 2.115,-2.594 z"
         id="path6080" />
      <path
         fill="#e6e6e6"
         d="m 2143.172,2141.121 c -1.953,1.945 -4.096,3.699 -6.363,5.213 l -13.908,-20.775 c 0.91,-0.604 1.791,-1.318 2.594,-2.115 z"
         id="path6082" />
      <path
         fill="#c1272d"
         d="m 2136.809,2146.334 c -2.268,1.514 -4.658,2.789 -7.129,3.811 l -9.574,-23.094 c 0.947,-0.391 1.885,-0.887 2.795,-1.492 z"
         id="path6084" />
      <path
         fill="#e6e6e6"
         d="m 2129.68,2150.145 c -2.469,1.023 -5.016,1.795 -7.645,2.316 l -4.852,-24.523 c 1.016,-0.205 1.973,-0.494 2.922,-0.887 z"
         id="path6086" />
      <path
         fill="#c1272d"
         d="m 2350.547,2158.764 c 3.078,-15.527 4.602,-31.322 4.611,-46.982 h 25 c -0.01,17.262 -1.689,34.693 -5.086,51.832 z"
         id="path6088" />
      <path
         fill="#e6e6e6"
         d="m 2113.834,2353.107 c 15.658,-0.01 31.453,-1.533 46.98,-4.611 l 4.852,24.525 c -17.141,3.396 -34.572,5.076 -51.834,5.086 z"
         id="path6090" />
      <path
         fill="#c1272d"
         d="m 2160.814,2348.496 c 15.527,-3.07 30.783,-7.691 45.41,-13.758 l 9.576,23.094 c -16.148,6.697 -32.994,11.799 -50.135,15.189 z"
         id="path6092" />
      <path
         fill="#e6e6e6"
         d="m 2206.225,2334.738 c 14.633,-6.064 28.639,-13.57 41.754,-22.35 l 13.908,20.775 c -14.473,9.688 -29.932,17.973 -46.086,24.668 z"
         id="path6094" />
      <path
         fill="#c1272d"
         d="m 2247.979,2312.389 c 13.119,-8.777 25.354,-18.826 36.498,-29.965 l 17.676,17.68 c -12.293,12.287 -25.789,23.373 -40.266,33.061 z"
         id="path6096" />
      <path
         fill="#e6e6e6"
         d="m 2284.477,2282.424 c 11.137,-11.143 21.186,-23.377 29.965,-36.496 l 20.773,13.908 c -9.686,14.477 -20.773,27.973 -33.061,40.266 z"
         id="path6098" />
      <path
         fill="#c1272d"
         d="m 2314.441,2245.928 c 8.777,-13.115 16.283,-27.123 22.348,-41.754 l 23.094,9.576 c -6.695,16.152 -14.98,31.611 -24.668,46.086 z"
         id="path6100" />
      <path
         fill="#e6e6e6"
         d="m 2336.789,2204.174 c 6.066,-14.629 10.688,-29.883 13.758,-45.41 l 24.525,4.85 c -3.391,17.143 -8.492,33.986 -15.189,50.137 z"
         id="path6102" />
    </g>
    <g
       id="g5852"
       transform="matrix(0.26458333,0,0,0.26458333,-405.4626,-371.79548)">
      <rect
         x="1903.8459"
         y="2152.717"
         fill="#4d4d4d"
         width="200"
         height="200"
         id="rect5818" />
      <rect
         x="1903.8459"
         y="2127.8831"
         fill="#c1272d"
         width="25"
         height="25"
         id="rect5820" />
      <rect
         x="2078.8459"
         y="2127.8831"
         fill="#e6e6e6"
         width="25"
         height="25"
         id="rect5822" />
      <rect
         x="2053.8459"
         y="2127.8831"
         fill="#c1272d"
         width="25"
         height="25"
         id="rect5824" />
      <rect
         x="2028.8459"
         y="2127.8831"
         fill="#e6e6e6"
         width="25"
         height="25"
         id="rect5826" />
      <rect
         x="2003.8459"
         y="2127.8831"
         fill="#c1272d"
         width="25"
         height="25"
         id="rect5828" />
      <rect
         x="1978.8459"
         y="2127.885"
         fill="#e6e6e6"
         width="25"
         height="24.997999"
         id="rect5830" />
      <rect
         x="1953.8459"
         y="2127.885"
         fill="#c1272d"
         width="25"
         height="24.997999"
         id="rect5832" />
      <rect
         x="1928.8459"
         y="2127.8831"
         fill="#e6e6e6"
         width="25"
         height="25"
         id="rect5834" />
      <rect
         x="2078.8459"
         y="2352.717"
         fill="#c1272d"
         width="25"
         height="25"
         id="rect5836" />
      <rect
         x="1903.8459"
         y="2352.717"
         fill="#e6e6e6"
         width="25"
         height="25"
         id="rect5838" />
      <rect
         x="1928.8459"
         y="2352.717"
         fill="#c1272d"
         width="25"
         height="25"
         id="rect5840" />
      <rect
         x="1953.8459"
         y="2352.717"
         fill="#e6e6e6"
         width="25"
         height="25"
         id="rect5842" />
      <rect
         x="1978.8459"
         y="2352.717"
         fill="#c1272d"
         width="25"
         height="25"
         id="rect5844" />
      <rect
         x="2003.8459"
         y="2352.717"
         fill="#e6e6e6"
         width="25"
         height="25"
         id="rect5846" />
      <rect
         x="2028.8459"
         y="2352.718"
         fill="#c1272d"
         width="25"
         height="24.997999"
         id="rect5848" />
      <rect
         x="2053.8459"
         y="2352.718"
         fill="#e6e6e6"
         width="25"
         height="25"
         id="rect5850" />
    </g>
    <g
       id="g5888"
       transform="matrix(0.26458333,0,0,0.26458333,-402.77283,-371.70788)">
      <path
         fill="#4d4d4d"
         d="m 1893.846,2352.719 c -62.978,0.385 -126.417,-25.9 -170.644,-70.684 -44.781,-44.229 -71.066,-107.666 -70.682,-170.643 h 200 c -0.695,21.979 19.349,42.021 41.325,41.324 v 200.003 z"
         id="path5854" />
      <path
         fill="#c1272d"
         d="m 1853.167,2119.594 c -0.523,-2.631 -0.799,-5.348 -0.812,-8.201 h 25.001 c 0.014,1.25 0.133,2.33 0.336,3.348 z"
         id="path5856" />
      <path
         fill="#e6e6e6"
         d="m 1893.846,2152.883 c -2.854,-0.014 -5.57,-0.289 -8.201,-0.811 l 4.852,-24.525 c 1.018,0.203 2.098,0.322 3.35,0.336 v 25 z"
         id="path5858" />
      <path
         fill="#c1272d"
         d="m 1885.645,2152.072 c -2.629,-0.523 -5.176,-1.295 -7.646,-2.316 l 9.576,-23.094 c 0.949,0.391 1.906,0.682 2.922,0.885 z"
         id="path5860" />
      <path
         fill="#e6e6e6"
         d="m 1877.998,2149.756 c -2.469,-1.023 -4.859,-2.297 -7.127,-3.812 l 13.908,-20.773 c 0.91,0.605 1.848,1.102 2.795,1.492 z"
         id="path5862" />
      <path
         fill="#c1272d"
         d="m 1870.871,2145.943 c -2.268,-1.514 -4.41,-3.266 -6.363,-5.213 l 17.678,-17.676 c 0.803,0.795 1.684,1.51 2.594,2.115 z"
         id="path5864" />
      <path
         fill="#e6e6e6"
         d="m 1864.508,2140.73 c -1.945,-1.951 -3.699,-4.094 -5.214,-6.361 l 20.774,-13.908 c 0.605,0.91 1.32,1.789 2.117,2.594 z"
         id="path5866" />
      <path
         fill="#c1272d"
         d="m 1859.294,2134.369 c -1.514,-2.27 -2.789,-4.66 -3.811,-7.129 l 23.093,-9.576 c 0.393,0.947 0.889,1.885 1.492,2.797 z"
         id="path5868" />
      <path
         fill="#e6e6e6"
         d="m 1855.483,2127.24 c -1.023,-2.471 -1.795,-5.016 -2.316,-7.646 l 24.524,-4.852 c 0.203,1.016 0.494,1.973 0.885,2.922 z"
         id="path5870" />
      <path
         fill="#c1272d"
         d="m 1846.864,2348.107 c 15.528,3.076 31.323,4.6 46.981,4.611 v 24.998 c -17.262,-0.01 -34.694,-1.688 -51.833,-5.084 z"
         id="path5872" />
      <path
         fill="#e6e6e6"
         d="m 1652.521,2111.393 c 0.01,15.66 1.533,31.453 4.611,46.98 l -24.525,4.852 c -3.396,-17.141 -5.076,-34.57 -5.086,-51.832 z"
         id="path5874" />
      <path
         fill="#c1272d"
         d="m 1657.132,2158.373 c 3.07,15.529 7.691,30.783 13.758,45.412 l -23.094,9.576 c -6.697,-16.15 -11.799,-32.994 -15.189,-50.137 z"
         id="path5876" />
      <path
         fill="#e6e6e6"
         d="m 1670.89,2203.785 c 6.064,14.631 13.57,28.637 22.35,41.754 l -20.775,13.908 c -9.688,-14.475 -17.973,-29.934 -24.668,-46.086 z"
         id="path5878" />
      <path
         fill="#c1272d"
         d="m 1693.239,2245.539 c 8.777,13.119 18.826,25.352 29.965,36.496 l -17.68,17.678 c -12.287,-12.293 -23.373,-25.789 -33.061,-40.266 z"
         id="path5880" />
      <path
         fill="#e6e6e6"
         d="m 1723.204,2282.035 c 11.143,11.139 23.377,21.188 36.496,29.965 l -13.908,20.775 c -14.477,-9.688 -27.973,-20.775 -40.266,-33.062 z"
         id="path5882" />
      <path
         fill="#c1272d"
         d="m 1759.7,2312 c 13.115,8.779 27.123,16.285 41.754,22.348 l -9.576,23.094 c -16.152,-6.695 -31.611,-14.979 -46.086,-24.666 z"
         id="path5884" />
      <path
         fill="#e6e6e6"
         d="m 1801.454,2334.348 c 14.629,6.068 29.883,10.688 45.41,13.76 l -4.85,24.525 c -17.143,-3.391 -33.986,-8.494 -50.137,-15.191 z"
         id="path5886" />
    </g>
    <path
       style="fill:none;stroke:#000000;stroke-width:0.264583px;stroke-linecap:butt;stroke-linejoin:miter;stroke-opacity:1"
       d="m 182.59854,99.718258 c 5.67502,15.590722 11.35016,31.181762 14.12525,45.556382 2.77509,14.37462 2.65036,27.53319 -2.8065,39.78748 -5.45686,12.2543 -16.24542,23.60411 -28.43738,29.77804 -12.19195,6.17392 -25.78679,7.17171 -42.71849,5.39436 -16.9317,-1.77734 -37.199229,-6.32974 -48.705326,-14.40573 -11.506097,-8.07599 -14.25001,-19.67525 -15.060772,-33.95639 -0.810763,-14.28113 0.311769,-31.24384 3.211747,-41.0038 2.899977,-9.75997 7.577097,-12.31679 12.254222,-14.87362"
       id="path1639"
       inkscape:original-d="m 182.59854,99.718258 c 0,0 11.35031,31.181712 17.02507,46.772172 -0.12446,13.15883 -0.24919,26.3174 -0.37418,39.47571 -10.78873,11.35053 -21.57729,22.70035 -32.36634,34.05014 -13.59511,0.99809 -27.18995,1.99587 -40.78533,2.99341 -20.26808,-4.55232 -40.535612,-9.10472 -60.803815,-13.65747 -2.743758,-11.59946 -5.487669,-23.19873 -8.231901,-34.79849 1.122796,-16.96244 2.245328,-33.92515 3.367595,-50.88812 4.677577,-2.55667 9.354698,-5.11349 14.031652,-7.67063"
       inkscape:path-effect="#path-effect1641"
       sodipodi:nodetypes="caccccccc" />
    <path
       style="fill:none;stroke:#000000;stroke-width:0.264583px;stroke-linecap:butt;stroke-linejoin:miter;stroke-opacity:1"
       d="m 74.46129,115.99498 c 8.730854,-6.23633 17.461658,-12.47262 28.12593,-16.120853 10.66428,-3.648233 23.26133,-4.708381 36.91897,-4.302975 13.65765,0.405406 28.375,2.276255 43.09235,4.147104"
       id="path4819"
       inkscape:path-effect="#path-effect4821"
       inkscape:original-d="m 74.46129,115.99498 c 8.731067,-6.23603 17.461872,-12.47232 26.19241,-18.708875 12.59782,-1.059926 25.19487,-2.120074 37.79191,-3.180508 14.7182,1.871188 29.43555,3.742039 44.15293,5.612659" />
  </g>
</svg>
